<?xml version="1.0" encoding="UTF-8"?>
<svg version="1.1" xmlns="http://www.w3.org/2000/svg" width="1024" height="1024">
<path d="M0 0 C337.92 0 675.84 0 1024 0 C1024 337.92 1024 675.84 1024 1024 C686.08 1024 348.16 1024 0 1024 C0 686.08 0 348.16 0 0 Z " fill="#F6F6F6" transform="translate(0,0)"/>
<path d="M0 0 C0.8137717 -0.00235223 1.62754339 -0.00470446 2.46597484 -0.00712797 C5.21621978 -0.01383035 7.9664176 -0.01335938 10.71667004 -0.01294994 C12.69901276 -0.01624779 14.68135481 -0.01997318 16.66369599 -0.02409142 C22.12949227 -0.03412838 27.59527757 -0.03783093 33.06108177 -0.04048073 C38.94872912 -0.04437869 44.83636773 -0.05395728 50.72400951 -0.0626936 C64.27804547 -0.0815361 77.83208297 -0.09171553 91.3861286 -0.10015428 C98.08189861 -0.10435947 104.77766772 -0.10958159 111.47343698 -0.11483881 C134.38729566 -0.13272857 157.3011546 -0.1477257 180.21501923 -0.155159 C181.65371244 -0.15563376 183.09240564 -0.15610964 184.53109885 -0.15658666 C185.6013054 -0.15694122 185.6013054 -0.15694122 186.69313229 -0.15730295 C190.30800844 -0.15850416 193.92288459 -0.15971961 197.53776073 -0.16094494 C198.61383992 -0.16130516 198.61383992 -0.16130516 199.71165807 -0.16167267 C222.97906498 -0.1695683 246.24642095 -0.19300577 269.51380561 -0.22550088 C294.10530216 -0.25978264 318.69676889 -0.27950855 343.28828973 -0.28280324 C345.98674914 -0.28322079 348.68520855 -0.28370035 351.38366795 -0.28422642 C352.38034496 -0.28441121 352.38034496 -0.28441121 353.39715686 -0.28459973 C363.43604193 -0.28678907 373.47487151 -0.30017593 383.51373768 -0.31926441 C394.92947074 -0.34092046 406.34511075 -0.34904695 417.76086203 -0.33929763 C423.58839074 -0.33473831 429.41572725 -0.33673375 435.24322987 -0.35605907 C440.57460279 -0.37358697 445.90564182 -0.37277781 451.23701777 -0.35716178 C453.16905839 -0.35476988 455.10112152 -0.35919045 457.03312758 -0.37099043 C459.65376105 -0.38600903 462.273196 -0.37650697 464.89379883 -0.36076355 C465.64886936 -0.37098576 466.40393989 -0.38120796 467.18189135 -0.39173993 C472.30011684 -0.3243506 475.17341822 0.94395184 479.13566113 4.13422108 C482.40693243 7.75544234 483.9845304 11.1972106 484.76066113 16.00922108 C483.93932396 26.32601716 476.19297133 34.0374858 469.66349316 41.40033436 C467.5921525 43.75103129 465.56630987 46.13914978 463.53751659 48.52655506 C459.57364473 53.18698836 455.56581746 57.79587968 451.44816113 62.32172108 C448.45647952 65.61364313 445.6104169 68.98013415 442.82316113 72.44672108 C438.93245405 77.26087696 434.80565647 81.78346441 430.5777998 86.29755116 C427.46041386 89.64486351 424.50006945 93.06408896 421.63566113 96.63422108 C417.3003718 102.03362688 412.64114652 107.07472474 407.92081738 112.13422108 C405.16609537 115.08880089 402.49898615 118.11160229 399.85050488 121.16156483 C397.74861679 123.57945431 395.63588816 125.98679748 393.51066113 128.38422108 C392.7965205 129.19375233 392.08237988 130.00328358 391.34659863 130.83734608 C384.90087754 137.53360756 384.90087754 137.53360756 380.13566113 137.94672108 C379.49628613 138.01504139 378.85691113 138.0833617 378.19816113 138.15375233 C376.13566113 138.13422108 376.13566113 138.13422108 373.88541698 137.65009022 C347.32788218 132.66775238 317.92887012 139.3713835 295.64737988 154.32562733 C291.33162694 157.43323791 287.20145554 160.70733722 283.13566113 164.13422108 C282.32355175 164.78777576 281.51144238 165.44133045 280.67472363 166.11468983 C262.15541754 181.68375946 250.03730102 206.30859154 247.41300488 230.17718983 C245.58561615 256.24965143 250.20653869 281.57113293 265.91691113 303.00140858 C268.13566113 306.13422108 268.13566113 306.13422108 268.13566113 308.13422108 C267.56235058 308.42031239 266.98904003 308.70640369 266.39835644 309.00116444 C255.27472347 314.58863711 244.66867376 320.042076 235.13566113 328.13422108 C234.28101269 328.85093983 233.42636425 329.56765858 232.54581738 330.30609608 C215.31140486 345.28330511 203.01412311 363.73898835 194.51847363 384.81830311 C192.66426018 389.32688367 190.6686801 393.86771159 186.13566113 396.13422108 C179.20138049 396.70260474 179.20138049 396.70260474 175.32316113 394.63422108 C169.30957831 387.761555 169.70674095 379.76946874 169.7508955 371.11224842 C169.74264856 369.13407297 169.73440082 367.15589753 169.72612286 365.17772222 C169.72014709 363.06534827 169.7214974 360.9530929 169.72497082 358.84071445 C169.7318117 354.42767558 169.71586066 350.01489433 169.69657421 345.60190296 C169.65560504 335.44157622 169.64417681 325.28125737 169.63304424 315.12086201 C169.62252736 305.79876493 169.60572398 296.4767926 169.56494856 287.1547724 C169.54662604 282.77084754 169.54268735 278.38722006 169.54988384 274.0032661 C169.55104066 271.93282135 169.5453943 269.86252888 169.53670788 267.79210377 C169.52617371 265.27216717 169.52624834 262.75215434 169.53905773 260.23222828 C169.47605319 251.66202552 167.98556815 246.75356738 162.01066113 240.44672108 C157.14709593 235.18966356 152.63306098 229.70504216 148.13566113 224.13422108 C142.89897654 217.6869051 137.60022521 211.29994468 132.22208691 204.97064686 C128.57611181 200.67310483 125.00588832 196.31764306 121.44816113 191.94672108 C118.8741972 188.81622442 116.25997026 185.72249647 113.63566113 182.63422108 C109.51464479 177.78462727 105.46574759 172.88261301 101.44816113 167.94672108 C98.41067939 164.25248653 95.31494066 160.60947002 92.21720409 156.96576405 C89.35719175 153.59571118 86.5431038 150.193958 83.76066113 146.75922108 C79.59344988 141.63609041 75.27253656 136.65827179 70.93302441 131.68158436 C67.03157058 127.1969059 63.25088206 122.629494 59.51066113 118.00922108 C56.61070237 114.49874469 53.62807975 111.06589381 50.63566113 107.63422108 C46.16031596 102.50194451 41.79558986 97.30236834 37.51066113 92.00922108 C34.0638835 87.83680605 30.49892773 83.76999714 26.94132519 79.69208241 C23.68820854 75.95386024 20.50305822 72.17486749 17.38566113 68.32172108 C14.56078274 64.83186219 11.65848533 61.45411594 8.63566113 58.13422108 C4.73645589 53.84915699 1.03875824 49.43587467 -2.59871387 44.92718983 C-4.13084948 43.03843645 -5.68365989 41.16629773 -7.25496387 39.31000233 C-19.8038534 24.41339009 -19.8038534 24.41339009 -19.29012012 12.87640858 C-18.5455939 8.08138645 -16.35150426 5.44112399 -12.80183887 2.32172108 C-8.66429319 -0.21419402 -4.68374619 -0.00911819 0 0 Z " fill="#2289BC" transform="translate(235.8643388748169,382.86577892303467)"/>
<path d="M0 0 C5.25403171 0.0887141 10.50817571 0.13229544 15.76274109 0.17684937 C20.94268278 0.22371993 26.12239937 0.28496078 31.30215454 0.34899902 C33.89437421 0.37941244 36.48664497 0.4057714 39.07894897 0.42785645 C65.95523248 0.67302703 65.95523248 0.67302703 78.28710938 4.08251953 C79.13120361 4.30109619 79.97529785 4.51967285 80.8449707 4.74487305 C96.89826511 9.15364664 110.98449829 16.85136446 123.28710938 28.08251953 C124.12628906 28.82888672 124.96546875 29.57525391 125.83007812 30.34423828 C145.1817986 48.49585206 155.6705261 75.29577354 156.6940918 101.5703125 C156.81033799 109.47319351 156.09520577 114.98858539 150.67382812 120.81689453 C142.4330767 128.4912085 131.88753004 128.23185228 121.22961426 128.22969055 C120.24428727 128.23336724 119.25896028 128.23704393 118.24377489 128.24083203 C114.95678204 128.25180618 111.66982087 128.25570191 108.3828125 128.25952148 C106.02025758 128.26579056 103.65770364 128.27243775 101.29515076 128.2794342 C94.22089938 128.29860309 87.14665161 128.30924986 80.07238078 128.31816199 C76.73616493 128.32255494 73.39995057 128.32791877 70.06373596 128.33315086 C58.96818115 128.35014766 47.87262728 128.36464369 36.77706146 128.3718996 C33.90362039 128.37380926 31.03017932 128.37572965 28.15673828 128.37768555 C27.44262262 128.37816929 26.72850695 128.37865303 25.99275142 128.37915143 C14.41383304 128.38745932 2.8350177 128.41281592 -8.74385566 128.44526622 C-20.64544022 128.47834811 -32.54697237 128.496349 -44.44860315 128.49954385 C-51.12557797 128.50170689 -57.8024223 128.51087148 -64.47935486 128.53600502 C-70.75685918 128.5592559 -77.03409215 128.5635308 -83.31162834 128.55324364 C-85.61424092 128.55274755 -87.91686674 128.55908931 -90.21943855 128.57279968 C-93.36508332 128.59048152 -96.50975014 128.5834302 -99.65539551 128.57026672 C-100.56435436 128.58123597 -101.47331321 128.59220522 -102.40981627 128.60350686 C-109.42968488 128.5326812 -114.71416557 126.76234072 -119.99023438 122.04736328 C-120.81201172 121.04382813 -120.81201172 121.04382813 -121.65039062 120.02001953 C-122.49923828 119.01261719 -122.49923828 119.01261719 -123.36523438 117.98486328 C-128.69559171 110.46056177 -126.18047167 95.08048704 -125.08789062 86.39501953 C-120.42566362 61.10891334 -105.83710236 36.75047252 -84.83203125 21.73828125 C-76.268159 15.90715501 -67.32026543 10.98705519 -57.71289062 7.08251953 C-56.81054688 6.70482422 -55.90820312 6.32712891 -54.97851562 5.93798828 C-37.4480595 -0.67307356 -18.43901752 -0.32329027 0 0 Z " fill="#034A77" transform="translate(573.712890625,714.91748046875)"/>
<path d="M0 0 C14.59035416 11.01309323 23.57991193 24.77096504 27.94677734 42.46826172 C28.17107422 43.29583984 28.39537109 44.12341797 28.62646484 44.97607422 C33.31008221 64.41629426 28.03253368 83.73452484 17.94677734 100.46826172 C15.81835538 103.6956728 13.53975453 106.60446247 10.94677734 109.46826172 C10.36669922 110.13986328 9.78662109 110.81146484 9.18896484 111.50341797 C-3.16629293 124.91843635 -21.80327476 132.36863572 -39.74853516 133.75341797 C-61.8061811 134.28298567 -80.58085217 126.69628602 -96.42822266 111.59326172 C-109.31999931 98.07465638 -117.06018145 79.59516422 -117.49072266 60.90576172 C-116.81983959 40.28151765 -109.76423979 21.69936997 -95.50244141 6.80419922 C-93.09665283 4.56677843 -90.64119821 2.49090281 -88.05322266 0.46826172 C-87.35970703 -0.08216797 -86.66619141 -0.63259766 -85.95166016 -1.19970703 C-60.81712899 -19.50931868 -24.66256707 -17.91266323 0 0 Z " fill="#034A77" transform="translate(632.05322265625,563.53173828125)"/>
<path d="M0 0 C1.56226067 -0.01913956 1.56226067 -0.01913956 3.15608215 -0.03866577 C4.28108627 -0.04089142 5.40609039 -0.04311707 6.56518555 -0.04541016 C8.30205879 -0.05539536 8.30205879 -0.05539536 10.07402039 -0.06558228 C12.52605601 -0.07571529 14.97811924 -0.0803991 17.43017578 -0.08007812 C21.17681566 -0.08444342 24.92227041 -0.12073664 28.66870117 -0.15869141 C31.0508586 -0.16456098 33.43302163 -0.16852943 35.81518555 -0.17041016 C37.49358269 -0.19196671 37.49358269 -0.19196671 39.20588684 -0.21395874 C45.22570648 -0.17871346 49.28761744 -0.02910279 53.8894043 4.29052734 C56.98314269 8.4393105 57.2675661 11.52488014 57.27708435 16.6469574 C57.28246989 17.377952 57.28785543 18.1089466 57.29340416 18.86209255 C57.30768787 21.30642735 57.30057921 23.75022091 57.29345703 26.19458008 C57.2991604 27.94911128 57.30612453 29.70363877 57.31425476 31.4581604 C57.33220505 36.22056545 57.33101427 40.98278645 57.32531238 45.74521518 C57.32222322 49.72143923 57.32830993 53.69762778 57.33435112 57.67384678 C57.34840089 67.05432303 57.3468313 76.43470823 57.33544922 85.81518555 C57.32396726 95.49178928 57.33804396 105.16811589 57.36484569 114.84468311 C57.38699847 123.15395829 57.39364103 131.46314646 57.38776928 139.77244908 C57.38439753 144.73466792 57.38682931 149.69670911 57.40402031 154.65890312 C57.41948063 159.32524101 57.41554407 163.99116817 57.39671516 168.65748978 C57.39302675 170.36912139 57.39614512 172.08078336 57.40660095 173.79238701 C57.4197959 176.13110293 57.40827813 178.46845615 57.39060974 180.80711365 C57.39029582 182.7690877 57.39029582 182.7690877 57.38997555 184.77069759 C56.79997453 188.91936402 55.5123214 191.05802363 52.8894043 194.29052734 C49.57504856 196.50009784 48.47775287 196.55716925 44.61108398 196.61279297 C43.53276306 196.63200806 42.45444214 196.65122314 41.34344482 196.67102051 C40.1778302 196.67952026 39.01221558 196.68802002 37.8112793 196.69677734 C36.61134338 196.70817749 35.41140747 196.71957764 34.17510986 196.73132324 C31.63313324 196.75023006 29.09110753 196.76329393 26.54907227 196.77099609 C22.66815063 196.79038374 18.7893586 196.85240698 14.90893555 196.91552734 C12.43889604 196.92859019 9.96884138 196.93909004 7.4987793 196.94677734 C6.3412616 196.97147095 5.1837439 196.99616455 3.9911499 197.02160645 C-2.4616361 196.98610379 -6.28798125 196.44273601 -10.92498779 191.77526855 C-13.62303607 188.39649263 -13.24642061 185.54791561 -13.26449585 181.30158997 C-13.2688781 180.5738642 -13.27326036 179.84613844 -13.27777541 179.09636039 C-13.29118515 176.645211 -13.29734716 174.19409759 -13.3034668 171.74291992 C-13.31136613 169.99045651 -13.31963498 168.23799472 -13.32824707 166.48553467 C-13.35448952 160.71872516 -13.36977821 154.95190832 -13.3840332 149.18505859 C-13.38939222 147.20096011 -13.39476972 145.21686167 -13.40016556 143.23276329 C-13.4217987 134.97946331 -13.44053535 126.7261653 -13.45178795 118.47284412 C-13.46802582 106.64016741 -13.50119475 94.80781916 -13.5581888 82.97526628 C-13.59688398 74.65841249 -13.61642022 66.34164656 -13.62170851 58.02470511 C-13.62536292 53.05618003 -13.63739344 48.08800511 -13.66981125 43.11957741 C-13.69988392 38.44340716 -13.70620658 33.76779905 -13.69442749 29.09155273 C-13.69420668 27.37709648 -13.70251805 25.66261421 -13.72008133 23.94824791 C-13.8611629 9.38180843 -13.8611629 9.38180843 -10.7616272 4.84086609 C-7.05079537 1.27098086 -5.06734949 0.04213815 0 0 Z " fill="#2189BC" transform="translate(553.110595703125,160.70947265625)"/>
<path d="M0 0 C1.03812836 -0.01913956 2.07625671 -0.03827911 3.14584351 -0.05799866 C4.257388 -0.06133713 5.3689325 -0.0646756 6.51416016 -0.06811523 C7.66687408 -0.07810043 8.81958801 -0.08808563 10.00723267 -0.09837341 C12.44309911 -0.11354569 14.87902776 -0.12059948 17.31494141 -0.12011719 C21.03343889 -0.1266741 24.74926043 -0.18115872 28.46728516 -0.23803711 C30.83706772 -0.24684049 33.20686293 -0.25279383 35.57666016 -0.25561523 C37.23790421 -0.28795006 37.23790421 -0.28795006 38.93270874 -0.32093811 C45.26530619 -0.26497551 48.91720424 0.40726812 53.47476196 4.95228577 C55.68601685 7.67809829 55.80639367 9.53703287 55.81866455 12.97053528 C55.82437469 13.92527237 55.83008484 14.88000946 55.83596802 15.86367798 C55.83764481 17.4400856 55.83764481 17.4400856 55.83935547 19.04833984 C55.84680283 20.70459129 55.84680283 20.70459129 55.85440063 22.39430237 C55.86904959 26.06048192 55.87582892 29.72661821 55.88134766 33.39282227 C55.88709698 35.93389386 55.89285474 38.47496543 55.89862061 41.01603699 C55.90779289 45.66765766 55.91408995 50.31926529 55.91711736 54.97089273 C55.9215964 61.81538097 55.93913609 68.65966934 55.96811795 75.50409681 C55.99235056 81.43290825 56.00006226 87.36166997 56.00179291 93.29053307 C56.00482374 95.81234513 56.01286668 98.33415625 56.02597809 100.85593605 C56.04300402 104.38246481 56.04116646 107.90850558 56.03466797 111.43505859 C56.04388275 112.47992432 56.05309753 113.52479004 56.06259155 114.60131836 C56.02428935 121.22576313 55.07760782 124.61892489 50.73486328 129.71728516 C45.9232594 132.42246724 41.19889251 131.98642483 35.77197266 131.93188477 C34.03578674 131.93406761 34.03578674 131.93406761 32.26452637 131.93629456 C29.82020548 131.93463642 27.37587407 131.92308484 24.93164062 131.90234375 C21.19176857 131.87339587 17.45331476 131.88173654 13.71337891 131.89477539 C11.33706994 131.88853765 8.96076544 131.88014644 6.58447266 131.86938477 C5.46665405 131.8723204 4.34883545 131.87525604 3.19714355 131.87828064 C2.15255981 131.86559647 1.10797607 131.85291229 0.03173828 131.83984375 C-0.88361694 131.83444077 -1.79897217 131.82903778 -2.74206543 131.82347107 C-7.51887744 131.10561001 -9.71144366 129.24273341 -12.60192871 125.42112732 C-15.06518186 120.67362458 -14.8822091 115.91454359 -14.83935547 110.67041016 C-14.84986938 109.07881325 -14.84986938 109.07881325 -14.8605957 107.45506287 C-14.87814903 103.96008861 -14.86656085 100.46592926 -14.85302734 96.97094727 C-14.8557232 94.5338882 -14.85960641 92.09683018 -14.86462402 89.65977478 C-14.87051567 84.55644472 -14.86196718 79.45339507 -14.84326172 74.35009766 C-14.82048501 67.81877572 -14.83359001 61.28811176 -14.85755157 54.756814 C-14.8720286 49.7252459 -14.8673945 44.69383291 -14.85704041 39.66226006 C-14.85437778 37.25458129 -14.85762647 34.8468883 -14.86695862 32.43922615 C-14.87715372 29.06929534 -14.86157965 25.700419 -14.83935547 22.33056641 C-14.84745239 21.34174469 -14.85554932 20.35292297 -14.8638916 19.33413696 C-14.78997999 13.26332135 -14.0065751 8.40338777 -10.32177734 3.43579102 C-6.9263355 0.66486648 -4.32792478 0.05442679 0 0 Z " fill="#2289BD" transform="translate(437.32177734375,225.564208984375)"/>
<path d="M0 0 C1.02471405 -0.00960754 2.0494281 -0.01921509 3.10519409 -0.02911377 C4.21146149 -0.03336365 5.31772888 -0.03761353 6.45751953 -0.04199219 C8.16465622 -0.0505423 8.16465622 -0.0505423 9.90628052 -0.05926514 C12.31544057 -0.06871598 14.72461355 -0.07524945 17.13378906 -0.07910156 C20.8187514 -0.08881033 24.5031568 -0.119835 28.18798828 -0.15136719 C30.52782872 -0.15789696 32.86767314 -0.16314753 35.20751953 -0.16699219 C36.30973846 -0.17933899 37.4119574 -0.19168579 38.5475769 -0.20440674 C40.09410446 -0.19990509 40.09410446 -0.19990509 41.671875 -0.1953125 C42.57549774 -0.19895813 43.47912048 -0.20260376 44.41012573 -0.20635986 C48.68263198 0.40811684 51.14391645 2.08923825 53.75158691 5.49208069 C55.12001255 8.50127866 55.35703683 10.57008797 55.38525391 13.8659668 C55.4091217 15.54812538 55.4091217 15.54812538 55.43347168 17.26426697 C55.4336731 18.46644363 55.43387451 19.6686203 55.43408203 20.90722656 C55.44550232 22.77303123 55.44550232 22.77303123 55.45715332 24.67652893 C55.47071158 27.97707245 55.46856425 31.27721024 55.46276855 34.57775879 C55.46532808 36.59551873 55.48346089 38.6125135 55.50732422 40.63012695 C55.55014848 44.51452517 55.55920774 48.39761793 55.55908203 52.28222656 C55.57547729 53.482379 55.59187256 54.68253143 55.60876465 55.91905212 C55.53187323 65.21163784 55.53187323 65.21163784 52.55322266 68.90356445 C49.02805778 71.97877197 47.43530443 72.29021473 42.8605957 72.33813477 C41.26334908 72.35738762 41.26334908 72.35738762 39.63383484 72.37702942 C38.4786586 72.38441635 37.32348236 72.39180328 36.13330078 72.39941406 C34.94940262 72.40748581 33.76550446 72.41555756 32.54573059 72.4238739 C30.03644276 72.43772345 27.52713602 72.44844169 25.01782227 72.45629883 C21.17899919 72.47351546 17.34103621 72.51739599 13.50244141 72.56152344 C11.06690088 72.5716497 8.63135301 72.58016601 6.19580078 72.58691406 C5.04669724 72.60442215 3.89759369 72.62193024 2.71366882 72.63996887 C-5.22673995 72.61834505 -5.22673995 72.61834505 -9.17407227 70.38452148 C-12.42724277 66.49702329 -13.28527428 63.71397215 -13.30932617 58.64575195 C-13.31885818 57.54103043 -13.3283902 56.4363089 -13.33821106 55.29811096 C-13.33729965 54.10950974 -13.33638824 52.92090851 -13.33544922 51.69628906 C-13.33973434 50.4708287 -13.34401947 49.24536835 -13.34843445 47.98277283 C-13.35417728 45.39127215 -13.35467837 42.79975536 -13.3503418 40.20825195 C-13.34718291 36.24239615 -13.37063923 32.27728694 -13.39599609 28.31152344 C-13.39826917 25.79394625 -13.39897254 23.27636706 -13.39794922 20.75878906 C-13.40715897 19.57221207 -13.41636871 18.38563507 -13.42585754 17.1631012 C-13.41962875 16.05522751 -13.41339996 14.94735382 -13.40698242 13.8059082 C-13.40761185 12.8342421 -13.40824127 11.86257599 -13.40888977 10.86146545 C-12.96492022 7.6578427 -11.95970146 5.74173877 -10.03466797 3.16113281 C-9.37466797 3.16113281 -8.71466797 3.16113281 -8.03466797 3.16113281 C-8.03466797 2.50113281 -8.03466797 1.84113281 -8.03466797 1.16113281 C-5.07070149 0.17314399 -3.09377204 0.02341856 0 0 Z " fill="#2188BC" transform="translate(325.03466796875,284.8388671875)"/>
<path d="M0 0 C1 3 1 3 0 6 C-0.66 6 -1.32 6 -2 6 C-2 21.18 -2 36.36 -2 52 C-2.33 52 -2.66 52 -3 52 C-3.07595711 45.07665012 -3.12856051 38.15340737 -3.16479492 31.22973633 C-3.17989747 28.87357569 -3.20038091 26.51744323 -3.22631836 24.16137695 C-3.26263656 20.77808688 -3.27971167 17.39516792 -3.29296875 14.01171875 C-3.30845261 12.95538742 -3.32393646 11.89905609 -3.33988953 10.81071472 C-3.34011612 9.82992447 -3.34034271 8.84913422 -3.34057617 7.83862305 C-3.34723801 6.97480515 -3.35389984 6.11098724 -3.36076355 5.22099304 C-2.92660822 2.54817322 -2.0701729 1.67659887 0 0 Z " fill="#ECF0F3" transform="translate(424,231)"/>
<path d="M0 0 C0 0.66 0 1.32 0 2 C-0.64026123 2.02505615 -1.28052246 2.0501123 -1.94018555 2.07592773 C-4.85613726 2.1923546 -7.7718029 2.31486867 -10.6875 2.4375 C-11.69490234 2.47681641 -12.70230469 2.51613281 -13.74023438 2.55664062 C-14.71669922 2.59853516 -15.69316406 2.64042969 -16.69921875 2.68359375 C-17.59471436 2.72025146 -18.49020996 2.75690918 -19.4128418 2.79467773 C-22.77312135 3.06135652 -25.91866418 3.65015606 -29.125 4.6875 C-31 5 -31 5 -34 3 C-22.53973354 0.92752985 -11.66133742 -0.47063694 0 0 Z " fill="#023061" transform="translate(564,715)"/>
<path d="M0 0 C0.33 0 0.66 0 1 0 C1.05394705 2.60444348 1.09364469 5.20776998 1.125 7.8125 C1.14175781 8.55048828 1.15851562 9.28847656 1.17578125 10.04882812 C1.21074628 13.91246426 1.19397555 15.70903668 -1 19 C-3.51238446 14.67311565 -2.76992702 11.7507986 -1.58203125 7.16015625 C-1.38996094 6.44730469 -1.19789063 5.73445312 -1 5 C-0.66013333 3.33465333 -0.32297514 1.66870487 0 0 Z " fill="#19537F" transform="translate(729,810)"/>
<path d="M0 0 C-1.44390925 3.80666984 -3.34952803 5.26602582 -7 7 C-7.66 6.67 -8.32 6.34 -9 6 C-7.8803014 4.99406757 -6.7540588 3.9954151 -5.625 3 C-4.68527344 2.1646875 -4.68527344 2.1646875 -3.7265625 1.3125 C-2 0 -2 0 0 0 Z " fill="#043464" transform="translate(549,562)"/>
<path d="M0 0 C1.98 0 3.96 0 6 0 C5 2 5 2 1.9375 3.125 C0.968125 3.41375 -0.00125 3.7025 -1 4 C-0.67 2.68 -0.34 1.36 0 0 Z " fill="#EBF0F1" transform="translate(555,554)"/>
</svg>
